<?xml version="1.0" encoding="UTF-8" standalone="no"?>
<!-- Created with Inkscape (http://www.inkscape.org/) -->

<svg
   version="1.1"
   id="svg1"
   width="29.120001"
   height="30.08"
   viewBox="0 0 29.120001 30.08"
   sodipodi:docname="insta.svg"
   inkscape:version="1.4.2 (f4327f4, 2025-05-13)"
   xmlns:inkscape="http://www.inkscape.org/namespaces/inkscape"
   xmlns:sodipodi="http://sodipodi.sourceforge.net/DTD/sodipodi-0.dtd"
   xmlns="http://www.w3.org/2000/svg"
   xmlns:svg="http://www.w3.org/2000/svg">
  <defs
     id="defs1" />
  <sodipodi:namedview
     id="namedview1"
     pagecolor="#ffffff"
     bordercolor="#000000"
     borderopacity="0.25"
     inkscape:showpageshadow="2"
     inkscape:pageopacity="0.0"
     inkscape:pagecheckerboard="0"
     inkscape:deskcolor="#d1d1d1"
     inkscape:zoom="25.698138"
     inkscape:cx="14.57304"
     inkscape:cy="15.001087"
     inkscape:window-width="1920"
     inkscape:window-height="991"
     inkscape:window-x="-9"
     inkscape:window-y="-9"
     inkscape:window-maximized="1"
     inkscape:current-layer="g1" />
  <g
     inkscape:groupmode="layer"
     inkscape:label="Image"
     id="g1">
    <path
       style="fill:#000000"
       d="M 11.234774,28.470881 C 3.4719241,27.17141 -1.8867724,19.934915 -0.62740036,12.451954 0.66928494,4.7472847 7.8848281,-0.50201359 15.405947,0.78771502 26.579474,2.7037623 31.039145,16.002575 23.247487,24.171315 c -0.975452,1.022659 -2.488983,2.248768 -3.363404,2.724687 -2.42959,1.322349 -6.131362,1.996373 -8.649309,1.574879 z m 8.004993,-6.135118 c 2.088122,-1.116511 2.395008,-2.106205 2.395008,-7.723809 0,-5.605078 -0.303481,-6.5903662 -2.411324,-7.8286774 C 18.237204,6.203878 17.56705,6.1319535 13.154774,6.1319535 c -4.5975364,0 -5.0452034,0.052984 -6.1259324,0.725044 C 5.0327739,8.0982676 4.7774344,9.0821397 4.8934124,15.085218 l 0.1013614,5.246509 0.96,1.013362 c 0.528,0.557349 1.248,1.133272 1.6000001,1.27983 0.352,0.146557 2.8742471,0.275595 5.6049931,0.286751 4.256383,0.01739 5.124128,-0.0648 6.08,-0.575907 z M 7.3701585,20.396569 6.4347738,19.461185 v -4.680507 c 0,-5.214141 0.3151163,-6.375727 1.8458204,-6.8040887 0.4807984,-0.1345497 2.6741798,-0.2446358 4.8741798,-0.2446358 6.760839,0 6.880001,0.1166715 6.880001,6.7362445 0,6.778917 -0.08751,6.863756 -7.079673,6.863756 H 8.3055431 Z m 8.0851905,-2.147696 c 2.531266,-1.274388 2.828712,-5.055164 0.548645,-6.973714 -1.900371,-1.5990575 -4.756058,-1.3386165 -6.1707364,0.562778 -0.978143,1.314668 -1.2150682,2.391127 -0.826138,3.753514 0.455603,1.595937 1.2797474,2.508966 2.7199064,3.013253 1.324244,0.463698 2.282105,0.37228 3.728323,-0.355831 z m -3.517283,-1.301262 c -2.5769434,-1.248051 -1.401316,-5.215657 1.545433,-5.215657 0.879616,0 2.551275,1.671659 2.551275,2.551276 0,0.572279 -0.816329,2.568724 -1.05033,2.568724 -0.04064,0 -0.521867,0.128477 -1.06939,0.285504 -0.716552,0.205505 -1.270514,0.152309 -1.976988,-0.189847 z m 6.644815,-6.473434 c 0.470095,-0.8783815 -0.411949,-1.7604253 -1.290329,-1.2903303 -0.692801,0.3707756 -0.831193,1.4486583 -0.217777,1.6961773 0.777384,0.313681 1.181183,0.205015 1.508106,-0.405847 z"
       id="path1" />
  </g>
</svg>
