<?xml version="1.0" encoding="UTF-8" standalone="no"?>
<!-- Created with Inkscape (http://www.inkscape.org/) -->

<svg
   version="1.1"
   id="svg1"
   width="1024"
   height="1024"
   viewBox="0 0 1024 1024"
   sodipodi:docname="logo.svg"
   inkscape:version="1.4.2 (f4327f4, 2025-05-13)"
   xmlns:inkscape="http://www.inkscape.org/namespaces/inkscape"
   xmlns:sodipodi="http://sodipodi.sourceforge.net/DTD/sodipodi-0.dtd"
   xmlns="http://www.w3.org/2000/svg"
   xmlns:svg="http://www.w3.org/2000/svg">
  <defs
     id="defs1" />
  <sodipodi:namedview
     id="namedview1"
     pagecolor="#ffffff"
     bordercolor="#000000"
     borderopacity="0.25"
     inkscape:showpageshadow="2"
     inkscape:pageopacity="0.0"
     inkscape:pagecheckerboard="0"
     inkscape:deskcolor="#d1d1d1"
     inkscape:zoom="0.75488281"
     inkscape:cx="512"
     inkscape:cy="512"
     inkscape:window-width="1920"
     inkscape:window-height="991"
     inkscape:window-x="-9"
     inkscape:window-y="-9"
     inkscape:window-maximized="1"
     inkscape:current-layer="g1" />
  <g
     inkscape:groupmode="layer"
     inkscape:label="Image"
     id="g1">
    <path
       style="fill:currentColor"
       d="m 301.13196,930.70958 c -13.42207,-2.3331 -26.37874,-10.90533 -33.90199,-22.42979 -9.06422,-13.88498 -8.21877,29.47484 -7.88961,-404.62819 l 0.2916,-384.57544 4.32466,-8.72748 c 7.06877,-14.265282 17.91483,-23.194482 32.85181,-27.045772 5.5925,-1.44195 33.90977,-1.5681 299.49999,-1.3342 l 293.32354,0.25833 8.70917,4.33512 c 9.79924,4.87773 19.15296,13.754392 24.02393,22.798682 6.17576,11.46701 5.7669,-16.700532 5.7669,397.29509 0,245.32679 -0.34739,379.62991 -0.99073,383.02223 -3.61454,19.0594 -21.31526,36.25104 -41.7927,40.59074 -5.72672,1.21364 -48.93912,1.40864 -293.21658,1.32316 -157.575,-0.0551 -288.52499,-0.45226 -290.99999,-0.88248 z m 587.94498,-28.11291 c 6.68174,-3.3389 11.06741,-8.6557 13.06194,-15.83511 0.6219,-2.23858 0.98397,-57.25327 0.9875,-150.04581 l 0.006,-146.5113 -14.25,-5.73667 c -47.55897,-19.14597 -99.60248,-31.25097 -158.25,-36.80798 -18.12645,-1.71753 -76.86225,-2.31779 -100.55585,-1.02765 -96.88767,5.27564 -203.8978,27.27636 -323.44415,66.49844 l -22,7.218 -0.2708,131.93922 c -0.2483,120.97489 -0.13267,132.30518 1.39137,136.34282 2.26031,5.98827 7.85651,11.93289 13.87943,14.74356 l 5,2.33331 289.09027,0.01 289.09029,0.01 z M 346.13196,810.72704 v -60 h 36.5 36.49999 v 13.5 13.5 h -20.99999 -21 v 13 13 h 18.5 18.49999 v 13.5 13.5 h -18.49999 -18.5 v 20 20 h -15.5 -15.5 z m 87.99999,59.66461 c 0,-0.18447 8.02245,-22.12197 17.82767,-48.75 9.80521,-26.62804 19.59224,-53.47711 21.74895,-59.66461 l 3.92129,-11.25 17.00104,0.0228 17.00105,0.0228 10.38693,28.72722 c 14.85904,41.09578 31.73778,87.43069 32.59448,89.47722 0.68039,1.62535 -0.43683,1.75 -15.68528,1.75 h -16.41784 l -3.33336,-11 -3.33336,-11 h -21.11653 -21.11654 l -3.38829,11 -3.38829,11 h -16.35096 c -8.99303,-4e-5 -16.35096,-0.15097 -16.35096,-0.33543 z m 73,-46.2854 c 0,-1.50594 -13.27506,-41.43748 -13.65079,-41.06175 -0.48603,0.48602 -12.34921,39.80602 -12.34921,40.93091 0,0.41339 5.85,0.75163 13,0.75163 7.15,0 13,-0.27936 13,-0.62079 z m 76,-13.37921 v -60 h 25.2899 c 19.53149,0 26.63441,0.3502 31.19471,1.538 12.18288,3.17324 22.20373,11.36959 27.27188,22.30646 4.68469,10.10939 3.97423,27.15843 -1.50208,36.04542 -2.79562,4.53675 -9.61353,11.20238 -13.52624,13.22411 l -3.77184,1.94894 2.90483,3.71853 c 3.69974,4.73612 28.46731,38.30537 29.489,39.96854 0.60297,0.98154 -2.97207,1.25 -16.64624,1.25 h -17.41412 l -13.8505,-20.5 -13.8505,-20.5 h -3.7944 -3.79439 v 20.5 20.5 h -14.00001 -14 z m 50.08756,-7.28002 c 4.15652,-2.80107 5.87842,-6.03275 5.89771,-11.06885 0.0193,-5.04722 -2.48465,-10.15848 -6.31157,-12.88349 -2.49944,-1.77975 -4.83152,-2.26958 -12.37672,-2.59958 l -9.29697,-0.40662 v 14.61928 14.61928 h 9.35212 c 8.07903,0 9.81268,-0.31037 12.73543,-2.28002 z m 67.91527,65.53002 c 0.003,-1.88437 3.25824,-24.10056 10.51312,-71.75 2.51221,-16.5 5.08076,-33.7125 5.70788,-38.25 l 1.14023,-8.25 h 15.07307 15.07306 l 2.40071,6.25 c 1.32039,3.4375 6.36954,15.61393 11.22033,27.05874 4.85079,11.44481 10.04646,23.94976 11.54593,27.78879 2.55449,6.54013 2.8005,6.8358 3.90339,4.69126 0.97137,-1.88879 19.20712,-46.35929 25.2333,-61.53504 l 1.68616,-4.24625 15.52588,-0.004 15.52589,-0.004 8.26192,57.75 c 4.54405,31.7625 8.24491,58.7625 8.22411,60 -0.0374,2.22837 -0.17747,2.25 -14.56918,2.25 -10.75898,0 -14.62848,-0.32451 -14.90539,-1.25 -0.20569,-0.6875 -2.32596,-16.8875 -4.71169,-36 -2.38573,-19.1125 -4.56581,-34.74513 -4.84462,-34.73919 -0.27881,0.006 -5.6532,12.04345 -11.94309,26.75 -6.2899,14.70656 -13.36245,30.92573 -15.7168,36.0426 l -4.28062,9.30341 -5.23915,-0.30341 -5.23915,-0.30341 -12.07629,-28 c -6.64196,-15.4 -13.40328,-31.4875 -15.02515,-35.75 -1.62187,-4.2625 -3.18879,-7.75 -3.48203,-7.75 -0.42495,0 -4.32427,30.13424 -8.70204,67.25 l -0.56026,4.75 h -14.87117 c -13.49743,0 -14.87091,-0.16166 -14.86835,-1.75 z M 346.13196,673.20868 v -50.48164 h 29 29 v 11.98058 11.98059 l -14.25,-0.0963 c -7.8375,-0.053 -15.4875,-0.0442 -17,0.0194 l -2.75,0.11573 v 9.5 9.5 h 15 15 v 10.5 10.5 h -15 -15 v 18.35298 18.35297 l -12,0.12866 -12,0.12866 z m 60,49.75686 c 0,-0.45075 3.62622,-10.70131 8.05829,-22.77902 4.43206,-12.07772 12.59304,-34.44698 18.13551,-49.70948 l 10.07721,-27.75 h 12.7971 c 12.40413,0 12.81786,0.0691 13.47303,2.25 0.37176,1.2375 3.74432,10.575 7.49458,20.75 22.17243,60.15708 27.96427,76.08804 27.96427,76.91822 0,0.53073 -5.64247,0.85294 -13.20729,0.75419 l -13.20729,-0.17241 -1.26077,-3.5 c -0.69342,-1.925 -1.98207,-6.0875 -2.86366,-9.25 l -1.60291,-5.75 H 455.13117 438.2723 l -2.84968,9.25 -2.84968,9.25 -13.22049,0.27903 c -7.27128,0.15346 -13.22049,-0.0898 -13.22049,-0.54053 z m 57.99999,-39.35393 c 0,-0.61349 -1.8,-6.74581 -4,-13.62739 -2.2,-6.88158 -4,-13.12964 -4,-13.88457 0,-0.75494 -0.38106,-1.37261 -0.8468,-1.37261 -0.79538,0 -9.1532,26.33459 -9.1532,28.84074 0,0.79314 2.8424,1.15926 9,1.15926 5.95424,0 9,-0.37748 9,-1.11543 z m 46,39.62433 c 0,-0.27011 1.56293,-10.73261 3.47318,-23.25 1.91025,-12.5174 4.85598,-32.2089 6.54607,-43.7589 1.69009,-11.55 3.54836,-23.8125 4.12948,-27.25 l 1.05658,-6.25 h 11.81979 11.8198 l 1.20925,3.75 c 0.66508,2.0625 5.16825,13.65 10.00703,25.75 4.83879,12.1 9.10437,23.24175 9.47909,24.75945 1.15736,4.68769 2.20649,4.01153 4.50837,-2.9056 1.21905,-3.66326 5.95038,-16.60398 10.51407,-28.75716 l 8.2976,-22.09669 h 12.79561 12.79561 l 2.22867,16 c 6.15544,44.19091 11.31981,82.20122 11.31981,83.31496 0,0.94283 -2.98091,1.17818 -12.2331,0.96582 l -12.23311,-0.28078 -1.23116,-8.5 c -0.67714,-4.675 -2.18523,-16.55097 -3.3513,-26.39105 -1.16608,-9.84007 -2.41966,-18.68927 -2.78574,-19.66488 -0.45046,-1.20049 -4.38271,7.32567 -12.1656,26.37823 l -11.5,28.15207 -4.45247,-0.004 -4.45247,-0.004 -3.86807,-8.98334 c -9.32742,-21.66202 -18.72699,-44.79146 -18.72699,-46.08104 0,-0.77109 -0.38883,-1.40199 -0.86408,-1.40199 -0.94636,0 -0.8907,-0.34361 -5.18375,32 -1.64256,12.375 -3.18964,23.0625 -3.43794,23.75 -0.32848,0.90948 -3.86518,1.25 -12.98285,1.25 -6.89226,0 -12.53138,-0.221 -12.53138,-0.4911 z m 143.98282,0.27385 c -0.009,-0.15551 -0.0427,-22.78275 -0.0738,-50.28275 l -0.0566,-50 11.58306,-0.28182 11.58305,-0.28181 -0.25926,50.28181 -0.25927,50.28182 -11.25,0.28275 c -6.1875,0.15551 -11.25774,0.15551 -11.26719,0 z m 54.01719,-50.50721 v -50.3371 l 12.03625,0.28078 12.03625,0.28078 0.21375,38.5 0.21375,38.5 18.75,0.27207 18.75,0.27206 v 11.41673 11.41673 l -31,-0.13248 -31,-0.13248 z m 88.88338,47.22446 c -0.0672,-1.65 -0.0391,-10.65 0.0626,-20 l 0.1848,-17 -7.17307,-11.5 c -17.88827,-28.67877 -27.759,-44.67514 -28.84759,-46.75 l -1.18049,-2.25 h 13.53335 13.53335 l 2.9686,4.75 c 1.63273,2.6125 6.47105,10.92299 10.75183,18.46775 4.28078,7.54476 8.11426,13.73226 8.51884,13.75 0.40459,0.0177 2.08703,-2.55525 3.73877,-5.71775 1.65175,-3.1625 6.33914,-11.375 10.41643,-18.25 l 7.41326,-12.5 13.59797,-0.27822 c 7.47888,-0.15302 13.59797,0.0326 13.59797,0.41245 0,0.37987 -1.29938,2.75507 -2.88752,5.27822 -1.58814,2.52315 -8.40742,13.36255 -15.15396,24.08755 -6.74654,10.725 -13.77216,21.79658 -15.61248,24.60351 l -3.34604,5.1035 7.9e-4,20.3965 7.8e-4,20.39649 H 809.13555 797.13758 Z M 321.13196,581.56824 c 32.19301,-10.10024 74.94915,-21.70896 115.49999,-31.35941 48.19134,-11.46876 100.32859,-20.20717 152,-25.4758 52.49067,-5.35217 111.18084,-5.51249 158.00001,-0.43161 51.64974,5.60509 108.49989,18.83571 146.14421,34.01182 4.65736,1.87759 8.89269,3.4138 9.41186,3.4138 0.52876,0 0.94393,-4.38286 0.94393,-9.96482 0,-8.4728 -0.26202,-10.1027 -1.75,-10.88575 -3.42166,-1.80066 -29.1213,-10.07132 -43.80738,-14.0981 -27.07791,-7.42449 -64.20721,-14.63882 -97.76554,-18.99612 -65.60274,-8.51804 -148.26475,-9.24601 -231.17709,-2.03589 -65.17942,5.66806 -157.96624,20.58452 -228.24999,36.6936 l -16.25,3.72451 v 23.72171 23.72171 l 7.25,-2.49025 c 3.9875,-1.36963 17.375,-5.66687 29.75,-9.5494 z m -17.84171,-65.75968 c 88.9157,-20.09111 190.05994,-34.29574 271.3417,-38.10704 52.21631,-2.44843 125.27666,-0.8891 168.50001,3.5963 54.09086,5.61315 115.42229,18.11553 149.02297,30.37826 4.59791,1.67803 8.95671,3.05096 9.68621,3.05096 1.07273,0 1.27517,-4.63735 1.0586,-24.25 l -0.26778,-24.25 -309.25001,-0.2516 -309.24999,-0.25159 v 27.00159 c 0,15.51674 0.38633,27.0016 0.90829,27.0016 0.49955,0 8.71205,-1.76332 18.25,-3.91848 z m 117.8417,-78.72237 c -34.09454,-18.97732 -87.0146,-29.95384 -128.74999,-26.70494 l -8.25,0.64222 v 14.85179 14.85178 l 71.75,-0.0115 71.74999,-0.0114 z m 98,-54.83201 v -58.47286 l 72.75,0.22286 72.75001,0.22286 0.25806,58.25 0.25806,58.25 h 22.99194 22.99194 v -75.5574 -75.5574 l -14.80072,-22.6926 c -8.1404,-12.48093 -16.1279,-24.84874 -17.75,-27.48402 -2.81419,-4.57195 -3.97987,-5.32298 -25.44928,-16.39644 -12.375,-6.38277 -30.9361,-16.03913 -41.24688,-21.45858 -10.31079,-5.41946 -19.10764,-9.85356 -19.54856,-9.85356 -0.44092,0 -6.62983,3.06614 -13.75312,6.81365 -14.79437,7.78319 -31.14691,16.35871 -53.45145,28.03074 -15.29773,8.00535 -15.55163,8.19304 -19.45622,14.3834 -2.17593,3.44972 -10.38843,16.08876 -18.25,28.08676 l -14.29378,21.81455 v 74.93545 74.93545 h 23 23 z m 57.99856,-126.27714 -10e-4,-19.75 15.50144,0.2989 15.501,0.2989 v 19.4511 19.4511 h -15.5 -15.5 z m 28.35392,171.00279 -13.14867,-13.74721 -2.2157,1.99721 c -1.21864,1.09847 -7.16518,7.28471 -13.21453,13.74721 l -10.99883,11.75 h 26.3632 26.36322 z m 181.20994,9.70144 c 28.38155,-9.67191 65.48806,-16.17291 105.71673,-18.5214 l 10.77915,-0.62926 -0.27915,-12.65179 -0.27914,-12.65178 -20.5,0.10838 c -23.15656,0.12243 -36.09952,1.61565 -60,6.92218 -24.93491,5.53621 -49.2588,13.69829 -73.94707,24.81357 l -11.55293,5.20142 -0.30226,5.22722 -0.30226,5.22723 h 20.86467 c 20.62969,0 20.96533,-0.0343 29.80226,-3.04577 z m -145.5999,-39.70423 -0.0375,-32.75 -15.95139,16.35235 -15.9514,16.35235 15.73889,16.36571 c 8.65638,9.00114 15.85138,16.38009 15.98888,16.39765 0.1375,0.0176 0.23313,-14.70556 0.21251,-32.71806 z m -80.57363,16.01716 14.8889,-15.23285 -8.8889,-9.56049 c -4.88889,-5.25828 -11.91095,-12.8035 -15.60457,-16.76716 l -6.71568,-7.20666 -0.0343,32.33333 c -0.0189,17.78334 0.30318,32.18334 0.71568,32 0.4125,-0.18333 7.45,-7.18811 15.63889,-15.56617 z M 449.9043,408.23863 c 0.63854,-21.89304 0.61579,-21.97007 -7.58039,-25.66028 -20.20651,-9.09768 -52.18033,-17.44944 -78.19195,-20.42424 -11.62912,-1.32995 -20.63774,-1.5607 -45.5,-1.16547 -17.05,0.27105 -31.7875,0.82121 -32.75,1.22259 -1.53063,0.63831 -1.74984,2.25197 -1.74872,12.8728 l 10e-4,12.14301 26.24873,0.0778 c 34.12972,0.10118 52.14522,2.37561 79.68641,10.06028 18.89881,5.27324 38.23654,13.83423 52.55351,23.26594 3.29516,2.17078 6.17972,3.75837 6.41012,3.52797 0.23039,-0.2304 0.62236,-7.39459 0.87102,-15.92042 z m 297.96356,-11.43641 c 39.75929,-17.93897 98.41471,-30.06102 145.5141,-30.07275 l 9.75,-0.002 v -10.8838 c 0,-10.44113 -0.0914,-10.90787 -2.25,-11.48634 -4.43462,-1.18844 -39.69896,-0.60067 -55.32252,0.92208 -30.2477,2.9481 -64.20025,11.01462 -93.92748,22.3155 l -15,5.70228 -0.27746,14.21493 c -0.1526,7.8182 -0.0804,14.21492 0.16036,14.21492 0.2408,0 5.34965,-2.21617 11.353,-4.92482 z M 597.81114,374.47704 c 3.20145,-3.4375 10.06297,-10.63284 15.24784,-15.98965 5.18486,-5.35681 9.19075,-9.97591 8.90199,-10.26467 -0.28876,-0.28876 -14.27677,-0.40592 -31.08444,-0.26035 l -30.55942,0.26467 15.65742,16.16713 c 8.61158,8.89192 15.73806,16.20442 15.83661,16.25 0.0985,0.0456 2.79855,-2.72963 6,-6.16713 z m -148.09719,-28.498 c -0.28333,-5.9136 -0.53019,-12.22564 -0.54857,-14.02675 -0.025,-2.4481 -0.6014,-3.49935 -2.28343,-4.16449 -1.2375,-0.48935 -5.48481,-4.19071 -9.43846,-8.22525 l -7.18846,-7.33551 11.05736,-17.5 c 6.08155,-9.625 13.85812,-22 17.28125,-27.5 3.42314,-5.5 12.13251,-19.47059 19.35414,-31.04576 l 13.13024,-21.04575 7.27697,-3.50055 c 4.00233,-1.92531 26.87312,-13.47369 50.82398,-25.66307 l 43.54701,-22.16252 23.453,12.04314 c 12.89914,6.62372 35.43201,18.05255 50.07304,25.39739 l 26.62007,13.35426 16.37993,25.23054 c 9.00897,13.8768 23.20512,35.84194 31.54701,48.81143 l 15.16707,23.58089 -7.64361,7.75 c -7.33553,7.43763 -10.44294,9.18969 -11.52825,6.5 -0.27741,-0.6875 -0.53991,3.59906 -0.58333,9.52568 l -0.079,10.77568 2.76255,-1.42857 c 9.0101,-4.6593 40.10778,-13.7294 61.73745,-18.00664 25.84804,-5.11142 43.07346,-6.83023 73.75,-7.35902 l 28.75,-0.49558 v -96.76658 -96.76659 l -2.79274,-5.34591 c -3.12139,-5.97502 -9.28255,-11.25384 -14.98252,-12.83686 -2.52649,-0.70167 -96.69565,-1.03311 -292.72475,-1.03026 l -288.99999,0.004 -5.08131,2.36607 c -5.56406,2.59086 -11.41273,8.98567 -13.2741,14.51361 -0.83072,2.46729 -1.14459,32.31264 -1.14459,108.83792 V 337.9025 l 12.25,-0.83773 c 17.61816,-1.20484 58.46526,-0.87517 70.75,0.57102 26.74167,3.14807 52.38997,9.43523 70.99999,17.40418 8.50001,3.63977 10.65211,4.22903 11.29857,3.09362 0.43922,-0.7714 0.56676,-6.24095 0.28343,-12.15455 z m -44.08199,-67.83626 c -15.15619,-3.32926 -27.648,-11.87283 -36.32237,-24.8421 -6.4529,-9.64788 -9.22078,-17.79465 -9.89217,-29.1159 -1.15889,-19.54152 4.28318,-34.17001 17.74231,-47.69199 9.00033,-9.04235 17.98126,-13.8758 30.55043,-16.44196 31.58281,-6.44802 66.40413,21.2968 66.52022,53.00177 0.0426,11.6376 -2.40785,17.47242 -15.65936,37.2867 -6.46995,9.67415 -13.1577,19.06762 -14.86168,20.87436 -6.11828,6.48727 -24.69744,9.8682 -38.07738,6.92912 z"
       id="path1" />
  </g>
</svg>
