<?xml version="1.0" encoding="UTF-8" standalone="no"?>
<!-- Created with Inkscape (http://www.inkscape.org/) -->

<svg
   version="1.1"
   id="svg1"
   width="29.76"
   height="30.08"
   viewBox="0 0 29.76 30.08"
   sodipodi:docname="twitter.svg"
   inkscape:version="1.4.2 (f4327f4, 2025-05-13)"
   xmlns:inkscape="http://www.inkscape.org/namespaces/inkscape"
   xmlns:sodipodi="http://sodipodi.sourceforge.net/DTD/sodipodi-0.dtd"
   xmlns="http://www.w3.org/2000/svg"
   xmlns:svg="http://www.w3.org/2000/svg">
  <defs
     id="defs1" />
  <sodipodi:namedview
     id="namedview1"
     pagecolor="#ffffff"
     bordercolor="#000000"
     borderopacity="0.25"
     inkscape:showpageshadow="2"
     inkscape:pageopacity="0.0"
     inkscape:pagecheckerboard="0"
     inkscape:deskcolor="#d1d1d1"
     inkscape:zoom="25.698138"
     inkscape:cx="14.884347"
     inkscape:cy="15.04"
     inkscape:window-width="1920"
     inkscape:window-height="991"
     inkscape:window-x="-9"
     inkscape:window-y="-9"
     inkscape:window-maximized="1"
     inkscape:current-layer="g1"
     showgrid="false" />
  <g
     inkscape:groupmode="layer"
     inkscape:label="Image"
     id="g1">
    <path
       style="fill:#000000"
       d="M 7.7930141,28.995336 C 2.1847096,27.777015 -2.1830908,23.082833 -3.1132077,17.274151 -4.5685669,8.1852772 3.8049903,-0.0367004 12.924186,1.5270682 c 8.214645,1.4086553 13.399106,9.2610698 11.338297,17.1730508 -1.360293,5.222518 -5.216119,9.012009 -10.417191,10.237977 -2.405845,0.567092 -3.65106,0.578869 -6.0522779,0.05724 z m -0.8,-8.844029 c 1.365619,-1.584 2.572281,-2.874905 2.681472,-2.868679 0.10919,0.0062 1.0673199,1.266227 2.1291779,2.8 l 1.930649,2.788679 2.189549,0.09554 c 1.86806,0.08151 2.161653,0.02284 1.999557,-0.399575 -0.104496,-0.272311 -1.323505,-2.115303 -2.70891,-4.095537 -1.385405,-1.980234 -2.621085,-3.778141 -2.745955,-3.99535 -0.138807,-0.24145 0.742857,-1.522016 2.268711,-3.295173 2.792864,-3.2455164 2.955211,-3.5133643 2.122416,-3.5016507 -0.339175,0.00477 -1.531634,1.1445467 -2.826667,2.7017857 -1.232,1.481443 -2.322031,2.70173 -2.422291,2.711748 -0.10026,0.01001 -1.013721,-1.205788 -2.0299139,-2.701788 L 7.7331861,7.6713066 H 5.5118413 c -2.615584,0 -2.710998,-0.4720826 0.9687119,4.7929244 2.4919719,3.565566 2.5506019,3.691838 2.0058439,4.32 -0.308639,0.355892 -1.501145,1.727076 -2.6500132,3.047076 -2.6020686,2.989663 -2.7298303,3.2 -1.9437269,3.2 0.3802289,0 1.5712581,-1.106377 3.1003571,-2.88 z m 2.909519,-4.673246 C 7.5102971,12.027775 5.5530143,9.075775 5.5530143,8.9180604 c 0,-0.1577146 0.3399635,-0.2867538 0.7554749,-0.2867538 0.6068419,0 1.3109209,0.8026977 3.5787329,4.0800004 1.5527929,2.244 3.6008159,5.196 4.5511639,6.56 l 1.727904,2.48 h -0.957119 c -0.882364,0 -1.296838,-0.48997 -5.3066379,-6.273246 z"
       id="path1" />
  </g>
</svg>
