<?xml version="1.0" encoding="UTF-8" standalone="no"?>
<!-- Created with Inkscape (http://www.inkscape.org/) -->

<svg
   version="1.1"
   id="svg1"
   width="31.68"
   height="32.959999"
   viewBox="0 0 31.68 32.959999"
   sodipodi:docname="twitter.svg"
   inkscape:version="1.4.2 (f4327f4, 2025-05-13)"
   xmlns:inkscape="http://www.inkscape.org/namespaces/inkscape"
   xmlns:sodipodi="http://sodipodi.sourceforge.net/DTD/sodipodi-0.dtd"
   xmlns="http://www.w3.org/2000/svg"
   xmlns:svg="http://www.w3.org/2000/svg">
  <defs
     id="defs1" />
  <sodipodi:namedview
     id="namedview1"
     pagecolor="#ffffff"
     bordercolor="#000000"
     borderopacity="0.25"
     inkscape:showpageshadow="2"
     inkscape:pageopacity="0.0"
     inkscape:pagecheckerboard="0"
     inkscape:deskcolor="#d1d1d1"
     inkscape:zoom="23.452671"
     inkscape:cx="15.840414"
     inkscape:cy="16.48"
     inkscape:window-width="1920"
     inkscape:window-height="991"
     inkscape:window-x="-9"
     inkscape:window-y="-9"
     inkscape:window-maximized="1"
     inkscape:current-layer="g1" />
  <g
     inkscape:groupmode="layer"
     inkscape:label="Image"
     id="g1">
    <path
       style="fill:#000000"
       d="M 13.887917,29.770362 C 4.1990853,27.932587 -0.84529418,18.234048 3.3899119,9.5864469 4.4816029,7.3573917 7.2215405,4.5290155 9.3324271,3.4521215 16.58419,-0.24745206 25.002325,2.6368096 28.532782,10.030639 c 1.140321,2.388173 1.194292,2.649735 1.176743,5.70297 -0.02137,3.718217 -0.644036,5.689946 -2.706356,8.569942 -1.467476,2.049308 -4.408363,4.15534 -6.790344,4.862712 -1.771932,0.526207 -5.073226,0.841517 -6.324908,0.604099 z m -1.76,-9.076754 c 1.365619,-1.584 2.572281,-2.874905 2.681472,-2.868678 0.10919,0.0062 1.06732,1.266226 2.129178,2.8 l 1.930649,2.788678 2.189549,0.09554 c 1.86806,0.08151 2.161653,0.02284 1.999557,-0.399574 -0.104496,-0.272315 -1.323505,-2.115306 -2.70891,-4.09554 -1.385405,-1.980234 -2.621085,-3.778142 -2.745955,-3.995351 -0.138807,-0.24145 0.742857,-1.522016 2.268711,-3.295172 2.793497,-3.2462516 2.954787,-3.5125093 2.122416,-3.5036761 -0.340398,0.00361 -1.526966,1.135814 -2.826667,2.6971531 -1.232,1.480011 -2.322031,2.701209 -2.422291,2.713774 -0.10026,0.01257 -1.013721,-1.201153 -2.029914,-2.697153 L 12.868089,8.2136092 h -2.210086 c -1.2155471,0 -2.2100857,0.048526 -2.2100857,0.1078357 0,0.05931 1.2941121,1.9600381 2.8758047,4.2238411 2.808245,4.01931 2.862421,4.13142 2.306111,4.772164 -0.313332,0.360887 -1.509678,1.736158 -2.658546,3.056158 -2.6020685,2.989663 -2.7298303,3.2 -1.9437269,3.2 0.3802289,0 1.5712579,-1.106377 3.1003569,-2.88 z m 2.909519,-4.673246 C 12.6452,12.570077 10.687917,9.6180769 10.687917,9.4603629 c 0,-0.157715 0.331249,-0.2867538 0.736109,-0.2867538 0.749885,0 1.248839,0.6466438 7.716061,9.9999989 l 2.157272,3.12 h -0.955202 c -0.879874,0 -1.298215,-0.494721 -5.304721,-6.273246 z"
       id="path1" />
  </g>
</svg>
